# xmcd
#
# Track frame offsets:
#	150
#	22730
#	47722
#	62587
#	89087
#	103200
#	125325
#	143865
#	158992
#	183295
#	201765
#	230030
#	241785
#
# Disc length: 3430 seconds
#
# Revision: 0
# Processed by: cddbd v1.5.2PL0 Copyright (c) Steve Scherf et al.
# Submitted via: audiograbber 1.83.01
#
DISCID=af0d640d
DTITLE=Lonnie Brooks - Sweet Home Chicago
DYEAR=1975
DGENRE=Blues
TTITLE0=The Train And The Horse (Take 2)
TTITLE1=Crosscut Saw
TTITLE2=Mama Talk To Your Daughter
TTITLE3=Two Guitars Shuffle
TTITLE4=Reconsider Baby
TTITLE5=Sweet Home Chicago
TTITLE6=Things I Used To Do
TTITLE7=Big Leg Woman
TTITLE8=Crazy 'Bout You Baby
TTITLE9=Woke Up This Morning
TTITLE10=Two Guitars Shuffle (Take 2)
TTITLE11=Mama Talk To Your Daughter (Take 2)
TTITLE12=The Train And The Horse (Take1)
EXTD=
EXTT0=
EXTT1=
EXTT2=
EXTT3=
EXTT4=
EXTT5=
EXTT6=
EXTT7=
EXTT8=
EXTT9=
EXTT10=
EXTT11=
EXTT12=
PLAYORDER=
